<svg fill="#FFFFFF" xmlns="http://www.w3.org/2000/svg" width="512" height="512"><path d="M488 176h-52.8a103.812 103.812 0 01-91.764-55.059l-9.789-18.353A87.852 87.852 0 00288 62.002V48a32 32 0 00-64 0v14.002a87.855 87.855 0 00-45.647 40.586l-9.788 18.353A103.814 103.814 0 0176.8 176H24a8 8 0 00-8 8v32a8 8 0 008 8h52.578l-26.182 72H40a8 8 0 00-8 8 64 64 0 00128 0 8 8 0 00-8-8h-10.396l-26.182-72h19.514a95.968 95.968 0 0063.216-23.753l21.054-18.423a55.856 55.856 0 014.794-3.737V390.11L211.056 416H192a8 8 0 00-6.4 3.2L164 448h-36a8 8 0 00-8 8v32a8 8 0 008 8h256a8 8 0 008-8v-32a8 8 0 00-8-8h-36l-21.6-28.8a8 8 0 00-6.4-3.2h-19.056L288 390.111V178.087a55.856 55.856 0 014.794 3.737l21.054 18.423A95.968 95.968 0 00377.064 224h19.514l-26.182 72H360a8 8 0 00-8 8 64 64 0 00128 0 8 8 0 00-8-8h-10.396l-26.182-72H488a8 8 0 008-8v-32a8 8 0 00-8-8zM240 48a16 16 0 0132 0v9.468a87.941 87.941 0 00-32 0zM96 352a48.079 48.079 0 01-47.334-40h94.668A48.079 48.079 0 0196 352zm28.578-56H67.422l26.182-72h4.792zM376 480H136v-16h240zm-48-32H184l12-16h120zm-55.155-52.422L283.055 416h-54.11l10.21-20.422A8 8 0 00240 392V170.354a55.563 55.563 0 0132 0V392a8 8 0 00.845 3.578zM416 352a48.079 48.079 0 01-47.334-40h94.667A48.079 48.079 0 01416 352zm28.578-56h-57.156l26.182-72h4.792zM480 208H377.064a79.972 79.972 0 01-52.68-19.794l-21.054-18.423a71.876 71.876 0 00-94.66 0l-21.054 18.423A79.972 79.972 0 01134.936 208H32v-16h44.8a119.784 119.784 0 00105.883-63.53l9.787-18.353a72 72 0 01127.06 0l9.788 18.354A119.782 119.782 0 00435.2 192H480z"/><path d="M256 88a24 24 0 1024 24 24.027 24.027 0 00-24-24zm0 32a8 8 0 118-8 8.01 8.01 0 01-8 8z"/></svg>