<?xml version="1.0" standalone="no"?>
<!DOCTYPE svg PUBLIC "-//W3C//DTD SVG 20010904//EN"
 "http://www.w3.org/TR/2001/REC-SVG-20010904/DTD/svg10.dtd">
<svg version="1.0" xmlns="http://www.w3.org/2000/svg"
 width="1421.000000pt" height="1421.000000pt" viewBox="0 0 1421.000000 1421.000000"
 preserveAspectRatio="xMidYMid meet">
<metadata>
Created by potrace 1.11, written by Peter Selinger 2001-2013
</metadata>
<g transform="translate(0.000000,1421.000000) scale(0.100000,-0.100000)"
fill="#000000" stroke="none">
<path d="M2780 12076 c-19 -18 -161 -162 -315 -321 -318 -326 -377 -387 -932
-951 -220 -225 -449 -458 -508 -519 -58 -60 -194 -199 -301 -307 -130 -131
-193 -201 -188 -210 9 -15 33 -45 54 -67 8 -9 40 -46 70 -81 30 -36 60 -70 66
-76 5 -6 30 -35 55 -64 24 -29 62 -74 84 -100 22 -26 49 -58 60 -73 11 -14 42
-48 68 -76 26 -27 47 -53 47 -58 0 -5 8 -16 18 -24 9 -9 37 -40 62 -69 25 -29
55 -63 67 -77 13 -13 23 -28 23 -33 0 -6 4 -10 9 -10 4 0 29 -26 54 -57 25
-32 58 -71 72 -86 23 -25 115 -131 165 -191 8 -10 25 -29 38 -42 12 -14 22
-27 22 -29 0 -2 12 -17 28 -33 59 -65 92 -103 92 -107 0 -2 16 -19 35 -38 19
-19 35 -38 35 -43 0 -5 23 -31 50 -59 28 -27 50 -53 50 -57 0 -4 26 -35 57
-68 31 -33 63 -70 72 -82 8 -12 22 -29 30 -38 9 -9 36 -41 61 -70 25 -29 55
-64 68 -77 12 -13 22 -25 22 -27 0 -2 17 -22 38 -44 20 -21 47 -52 59 -68 12
-16 45 -54 72 -84 28 -30 51 -58 51 -61 0 -4 19 -27 43 -51 24 -24 48 -51 53
-60 5 -9 27 -36 49 -60 22 -23 51 -56 63 -73 13 -16 49 -59 80 -93 31 -35 76
-85 100 -111 23 -27 42 -51 42 -54 0 -4 22 -31 49 -59 85 -92 101 -111 101
-117 0 -3 19 -26 43 -51 23 -25 58 -65 77 -88 19 -24 46 -56 60 -71 14 -15 45
-51 70 -81 25 -29 52 -61 61 -69 8 -9 53 -61 98 -116 46 -55 90 -105 97 -111
8 -6 14 -14 14 -17 0 -3 12 -19 28 -35 15 -16 50 -55 77 -87 28 -32 58 -67 68
-77 9 -10 17 -21 17 -25 0 -5 23 -30 50 -58 28 -27 50 -53 50 -58 0 -4 13 -21
30 -38 16 -18 27 -36 23 -42 -3 -5 -2 -7 4 -4 13 8 86 -70 78 -82 -3 -5 4 -12
14 -16 11 -3 23 -15 26 -26 4 -10 10 -19 15 -19 5 0 34 -31 65 -70 31 -38 66
-80 78 -93 12 -12 42 -47 67 -76 25 -30 53 -61 63 -70 9 -8 17 -21 17 -28 0
-7 4 -13 8 -13 7 0 78 -80 162 -183 8 -10 29 -33 45 -51 17 -18 44 -50 62 -72
17 -21 47 -56 67 -78 20 -21 36 -41 36 -45 0 -3 14 -19 32 -36 17 -16 47 -52
68 -80 20 -27 48 -59 60 -70 12 -11 46 -50 75 -86 29 -36 66 -79 82 -95 44
-46 93 -103 93 -108 0 -3 10 -16 23 -28 12 -13 42 -48 67 -77 69 -81 81 -95
133 -155 27 -30 65 -76 84 -101 20 -25 40 -45 44 -45 5 0 9 -5 9 -11 0 -6 11
-20 25 -31 14 -11 25 -23 25 -28 0 -5 17 -26 38 -48 57 -61 102 -113 102 -120
0 -4 23 -29 50 -57 28 -27 50 -53 50 -57 0 -7 14 -24 96 -110 24 -26 44 -51
44 -56 0 -5 16 -24 35 -43 20 -19 58 -62 85 -95 26 -34 59 -72 72 -85 12 -14
43 -49 68 -78 25 -30 52 -62 61 -70 8 -9 51 -59 95 -111 43 -52 82 -97 87 -98
4 -2 7 -7 7 -12 0 -4 17 -26 38 -48 20 -22 44 -49 52 -60 8 -11 40 -48 70 -82
58 -66 117 -134 138 -160 6 -8 36 -42 66 -75 30 -33 73 -85 97 -115 24 -30 48
-59 55 -65 12 -10 48 -52 124 -144 19 -23 43 -52 53 -63 9 -12 17 -24 17 -28
0 -4 8 -7 18 -6 17 1 112 92 112 107 0 3 15 21 32 41 18 19 51 57 73 82 22 26
49 57 60 69 11 12 40 47 65 77 52 64 117 136 142 159 10 8 18 19 18 23 0 4 10
17 23 30 12 13 42 47 67 77 25 30 57 68 73 85 15 17 27 34 27 39 0 4 5 5 10 2
6 -3 10 0 10 8 0 8 22 37 50 65 27 28 50 55 50 61 0 5 9 13 20 16 11 4 18 11
14 16 -3 5 19 34 49 65 31 30 68 72 83 92 26 34 97 118 198 234 23 26 55 64
73 85 17 21 45 54 62 73 17 19 31 39 31 43 0 5 5 5 10 2 6 -3 10 0 10 7 0 7
22 36 50 63 27 28 50 53 50 57 0 4 12 20 26 35 14 15 45 50 68 76 22 27 50 59
61 71 11 13 34 40 50 61 17 21 51 61 78 88 26 28 47 54 47 59 0 5 5 6 12 2 7
-4 8 -3 4 4 -4 7 20 40 58 79 35 38 78 86 94 108 16 22 41 51 55 65 15 14 27
31 27 39 0 8 3 11 7 8 3 -4 14 4 22 17 9 13 37 48 64 77 26 30 51 59 55 64 9
13 131 155 186 217 23 25 52 61 66 78 14 18 45 54 70 81 44 48 72 81 107 127
10 13 39 46 66 73 26 28 47 54 47 59 0 9 14 14 32 11 4 0 5 6 2 13 -3 8 18 38
51 73 31 32 74 81 94 108 21 28 50 61 64 75 15 14 27 28 27 32 0 4 19 27 43
52 23 25 53 59 67 76 14 17 35 42 47 55 12 13 57 65 100 117 42 51 87 102 100
113 13 11 23 24 23 28 0 4 8 15 18 25 9 10 40 45 67 77 28 32 59 68 70 80 11
13 34 40 50 61 17 21 47 55 68 75 20 20 37 41 37 47 0 6 9 14 20 17 11 4 18
10 15 15 -7 12 84 106 98 102 7 -2 9 -1 5 3 -8 8 38 74 93 132 21 22 39 43 39
46 0 3 12 18 28 35 15 16 45 50 67 76 22 25 49 57 60 69 11 13 38 45 60 71 22
26 56 66 75 88 19 23 47 54 63 69 15 14 27 29 27 32 0 5 39 51 94 111 16 17
35 41 43 53 9 13 19 20 24 17 5 -3 9 1 9 8 0 15 46 72 103 128 20 20 37 42 37
48 0 7 5 12 10 12 6 0 13 7 17 17 9 22 74 89 85 85 4 -1 7 1 6 5 -3 9 43 72
82 113 14 15 43 49 65 76 22 27 52 61 67 76 16 15 28 30 28 33 0 13 30 36 40
30 5 -3 7 0 4 8 -3 8 10 30 28 50 18 19 61 69 95 110 35 41 75 89 90 106 16
17 42 47 58 67 17 20 45 51 63 69 17 18 32 36 32 39 0 3 12 18 28 34 15 16 41
46 57 68 17 21 46 54 65 74 19 20 48 54 64 75 41 56 99 114 108 109 4 -3 5 2
2 10 -3 9 -2 16 4 16 6 0 19 15 31 33 11 17 38 50 60 72 22 22 40 43 41 47 0
4 10 17 23 30 12 13 42 47 67 77 25 29 56 66 70 81 14 15 43 49 65 76 22 27
58 69 81 94 22 25 49 57 60 71 18 23 126 148 164 189 8 8 27 31 42 50 15 19
45 55 67 80 46 51 48 59 24 81 -49 43 -161 168 -156 173 4 3 1 6 -5 6 -12 0
-292 278 -292 289 0 4 -11 15 -25 25 -13 10 -22 23 -18 29 3 5 2 7 -4 4 -11
-7 -133 115 -133 133 0 6 -4 9 -8 6 -5 -3 -74 63 -153 146 -166 174 -170 178
-195 199 -36 30 -114 118 -114 128 0 6 -5 11 -11 11 -14 0 -239 227 -239 241
0 6 -4 7 -10 4 -5 -3 -10 -2 -10 2 0 5 -106 116 -235 246 -129 131 -235 239
-235 241 0 1 -95 98 -210 214 l-210 212 -4273 0 -4272 0 -35 -34z m8268 -733
c-16 -2 -40 -2 -55 0 -16 2 -3 4 27 4 30 0 43 -2 28 -4z m-7308 -12 c-20 -4
-40 -10 -46 -14 -6 -3 -49 -11 -97 -17 -68 -8 -413 -85 -609 -135 -30 -8 -35
-1 -15 20 6 7 43 45 81 84 l68 71 327 -1 c179 -1 310 -4 291 -8z m7758 -423
c37 -39 128 -132 202 -208 74 -76 200 -206 280 -290 80 -84 210 -219 290 -301
225 -229 288 -297 282 -303 -3 -3 2 -6 10 -6 30 0 28 -30 -4 -66 -18 -19 -39
-44 -48 -55 -8 -11 -26 -33 -40 -49 -14 -15 -41 -47 -60 -70 -19 -23 -51 -59
-70 -79 -19 -21 -46 -52 -60 -70 -14 -18 -46 -56 -72 -84 -27 -28 -48 -55 -48
-60 0 -4 -4 -5 -10 -2 -5 3 -10 1 -10 -4 0 -11 -20 -36 -71 -91 -14 -16 -36
-42 -50 -60 -13 -17 -41 -50 -61 -72 -21 -22 -55 -60 -75 -86 -21 -25 -53 -62
-71 -82 -18 -19 -43 -48 -55 -63 -12 -16 -38 -46 -57 -66 -19 -21 -46 -52 -60
-70 -14 -18 -51 -60 -82 -94 -32 -34 -58 -65 -58 -68 0 -4 -23 -31 -51 -60
-27 -30 -60 -67 -72 -82 -12 -16 -39 -47 -60 -70 -21 -23 -48 -55 -60 -70 -12
-16 -34 -42 -50 -59 -15 -17 -46 -53 -70 -80 -23 -28 -50 -59 -60 -71 -9 -11
-18 -18 -20 -16 -1 2 -16 33 -32 69 -16 36 -45 81 -63 100 -18 19 -40 46 -49
60 -52 82 -279 234 -493 330 -30 13 -66 31 -80 40 -57 36 -315 127 -580 204
-138 40 -235 65 -485 122 -38 9 -99 25 -135 35 -124 35 -181 48 -263 59 -45 7
-118 20 -162 30 -44 11 -111 24 -150 30 -38 6 -81 13 -95 15 -134 23 -671 108
-725 116 -38 5 -92 13 -120 19 -124 24 -190 34 -305 50 -47 6 -92 13 -100 15
-8 3 -55 11 -105 20 -49 8 -126 22 -170 30 -114 21 -379 65 -455 75 -191 26
-643 128 -813 184 -120 40 -398 146 -435 166 -9 5 -44 21 -77 36 -61 27 -196
102 -205 114 -3 3 -21 16 -40 28 -59 36 -155 143 -205 227 -47 79 -47 80 -43
155 6 107 37 154 143 225 33 22 62 43 65 46 3 3 40 22 82 42 130 62 254 100
523 161 39 9 135 25 215 36 80 11 192 27 250 35 192 27 667 62 955 71 369 11
972 1 1285 -20 47 -3 141 -8 210 -11 288 -12 884 -75 1048 -111 60 -13 72 -19
72 -36 0 -11 9 -66 20 -121 42 -205 149 -711 175 -824 4 -15 19 -26 52 -36 98
-31 136 -35 443 -43 350 -9 354 -9 367 -17 6 -4 14 -3 18 3 4 6 9 8 13 6 18
-10 307 -16 342 -6 45 12 47 16 161 365 39 121 105 317 146 435 41 118 94 270
116 336 23 67 46 119 50 117 4 -3 38 -36 75 -75z m-9459 -766 c14 -31 32 -68
41 -82 9 -14 30 -45 46 -70 112 -174 258 -322 509 -516 36 -28 137 -89 175
-107 8 -4 33 -18 55 -32 60 -38 278 -142 385 -185 163 -65 538 -185 640 -206
14 -3 34 -9 45 -14 11 -5 52 -16 90 -24 39 -9 113 -27 165 -41 52 -14 173 -42
269 -61 204 -42 205 -42 251 -50 19 -3 94 -16 165 -29 72 -13 148 -26 170 -30
41 -5 59 -8 130 -21 l40 -7 -70 -19 c-38 -11 -95 -25 -125 -33 -69 -17 -283
-76 -420 -117 -531 -157 -924 -372 -1113 -610 -20 -25 -37 -50 -37 -54 0 -5
-46 -83 -66 -113 -4 -5 -44 37 -76 79 -14 19 -49 59 -77 89 -28 29 -51 56 -51
60 0 3 -24 31 -52 61 -29 31 -69 76 -88 100 -19 25 -48 59 -65 77 -16 17 -46
50 -65 73 -19 23 -46 55 -60 71 -14 15 -41 47 -60 70 -19 23 -51 59 -70 79
-19 21 -46 53 -60 71 -14 18 -41 49 -60 70 -19 20 -46 52 -59 69 -14 18 -36
44 -50 59 -14 16 -42 47 -61 71 -19 24 -46 55 -60 70 -14 15 -44 50 -67 78
-24 27 -55 63 -70 80 -16 17 -39 45 -53 62 -14 17 -41 48 -60 70 -19 21 -46
53 -60 71 -14 18 -45 54 -70 80 -25 26 -56 62 -70 80 -14 18 -41 50 -60 71
-19 21 -46 52 -60 69 -14 17 -41 48 -60 69 -19 22 -46 53 -60 70 -14 17 -37
45 -52 61 -16 17 -28 33 -28 35 0 3 25 29 55 59 30 31 55 60 55 65 0 6 4 10 9
10 8 0 111 103 227 227 27 28 54 52 59 52 6 0 21 -25 34 -57z m4901 -1731
c333 -46 667 -101 820 -136 58 -14 157 -36 220 -51 351 -79 698 -202 834 -295
103 -70 182 -167 206 -254 11 -40 10 -53 -10 -117 -42 -132 -106 -212 -268
-331 -159 -116 -463 -227 -817 -296 -49 -10 -108 -23 -130 -29 -22 -6 -58 -14
-80 -17 -22 -3 -67 -10 -100 -15 -181 -29 -257 -33 -370 -15 -135 20 -254 42
-320 60 -27 7 -77 17 -110 23 -206 36 -502 96 -560 112 -16 5 -61 16 -100 25
-136 30 -392 118 -515 177 -241 114 -338 184 -396 285 -16 26 -31 50 -34 53
-15 14 -31 87 -31 144 0 124 94 251 248 335 62 34 220 101 238 101 8 0 20 6
27 13 41 38 412 138 658 177 69 11 136 22 150 25 14 2 92 11 174 20 82 8 152
17 154 20 3 3 13 3 21 1 9 -3 50 -9 91 -15z m3298 -1366 c-13 -15 -40 -46 -61
-69 -21 -22 -48 -54 -60 -69 -12 -16 -38 -46 -57 -66 -19 -21 -51 -57 -70 -81
-19 -24 -46 -55 -60 -70 -14 -15 -45 -52 -70 -81 -25 -29 -54 -62 -65 -73 -11
-12 -36 -41 -55 -66 -19 -25 -46 -56 -60 -70 -14 -14 -41 -45 -60 -70 -19 -25
-46 -56 -60 -70 -14 -14 -38 -41 -55 -61 -85 -102 -103 -123 -137 -160 -21
-22 -38 -45 -38 -52 0 -7 -12 8 -26 33 -14 25 -30 47 -35 48 -5 2 -9 10 -9 18
0 8 -15 29 -34 47 -105 100 -145 135 -181 157 -22 13 -46 30 -53 37 -7 7 -20
13 -28 13 -8 0 -14 4 -14 9 0 5 -10 13 -22 16 -13 4 -41 15 -63 25 -22 10 -61
28 -86 39 -25 12 -50 21 -56 21 -6 0 -24 6 -40 14 -15 8 -44 21 -63 29 -87 36
-132 58 -128 62 2 2 33 9 68 15 151 25 533 107 585 125 22 7 83 23 135 35 104
23 176 44 230 67 19 8 102 35 184 59 82 25 162 52 179 60 16 9 57 25 91 36 34
11 113 44 176 73 63 29 116 52 118 50 2 -2 -7 -15 -20 -30z m-5805 -424 c64
-22 199 -63 300 -91 100 -28 209 -60 242 -70 33 -10 130 -34 215 -52 85 -18
157 -36 158 -40 2 -5 7 -6 12 -3 4 3 93 -11 198 -30 105 -19 219 -40 254 -45
68 -12 143 -25 223 -39 28 -5 129 -23 225 -40 96 -17 218 -38 270 -47 52 -9
102 -21 111 -25 9 -5 41 -13 70 -18 256 -47 324 -61 338 -67 9 -3 69 -17 133
-29 64 -13 125 -28 135 -33 10 -5 38 -13 63 -17 25 -4 50 -11 55 -15 6 -4 39
-16 74 -26 44 -12 65 -23 69 -36 2 -10 12 -18 21 -19 69 -4 93 -10 146 -37 79
-40 175 -112 225 -170 113 -132 85 -299 -75 -456 -42 -42 -86 -78 -96 -81 -10
-4 -19 -10 -19 -15 0 -15 -199 -106 -282 -129 -21 -6 -55 -16 -75 -22 -20 -7
-62 -15 -92 -20 -31 -5 -81 -14 -111 -20 -77 -16 -448 -22 -610 -9 -241 18
-255 20 -280 29 -14 5 -45 12 -70 15 -54 6 -61 15 -169 217 -25 48 -168 285
-250 416 -36 59 -69 66 -245 58 -78 -3 -148 -8 -156 -10 -8 -2 -69 -7 -135
-10 -66 -4 -122 -9 -124 -11 -2 -2 -20 18 -40 44 -19 26 -49 61 -66 78 -16 18
-40 45 -52 60 -12 16 -43 52 -70 80 -26 29 -55 62 -63 74 -8 13 -36 45 -62 72
-27 27 -48 52 -48 56 0 4 -26 35 -58 69 -31 34 -68 76 -82 93 -14 17 -36 43
-50 59 -14 15 -41 47 -60 71 -19 24 -48 58 -65 75 -16 17 -46 51 -66 75 -20
25 -50 61 -68 80 -57 64 -57 64 -35 58 10 -4 72 -25 137 -47z m3855 -1834
c-14 -14 -42 -47 -64 -73 -21 -27 -46 -56 -54 -64 -8 -8 -40 -44 -70 -80 -30
-36 -64 -74 -75 -86 -11 -11 -36 -40 -55 -64 -19 -24 -56 -66 -82 -94 -27 -27
-48 -53 -48 -57 0 -4 -23 -31 -51 -60 -27 -30 -60 -67 -72 -82 -12 -16 -39
-47 -59 -69 -21 -22 -55 -61 -75 -86 -21 -26 -51 -60 -68 -77 -16 -17 -41 -46
-55 -64 -14 -18 -37 -46 -53 -63 -15 -17 -46 -53 -70 -80 -23 -28 -53 -63 -67
-78 -14 -15 -41 -46 -60 -70 -19 -24 -52 -61 -72 -82 -21 -22 -38 -45 -38 -51
0 -12 -49 38 -110 113 -19 24 -46 55 -60 70 -14 15 -41 46 -60 70 -19 24 -46
55 -60 70 -14 15 -41 46 -60 70 -19 24 -48 58 -65 75 -16 17 -46 51 -66 75
-20 25 -50 59 -66 77 -16 17 -40 45 -54 63 -13 17 -38 46 -54 63 -17 18 -46
52 -66 77 -20 25 -49 59 -65 76 -16 17 -45 50 -64 74 -19 24 -51 60 -70 81
-83 91 -83 90 1 83 75 -6 166 -12 309 -20 275 -16 667 -11 775 10 17 3 68 9
115 12 47 3 96 10 110 15 14 5 50 13 80 18 114 21 198 41 285 69 50 16 115 37
145 46 30 10 78 28 105 41 75 35 199 84 203 80 2 -2 -7 -15 -20 -28z"/>
<path d="M1760 11530 c-9 -6 -10 -10 -3 -10 6 0 15 5 18 10 8 12 4 12 -15 0z"/>
<path d="M1520 11410 c-9 -6 -10 -10 -3 -10 6 0 15 5 18 10 8 12 4 12 -15 0z"/>
<path d="M985 11050 c-3 -6 1 -7 9 -4 18 7 21 14 7 14 -6 0 -13 -4 -16 -10z"/>
<path d="M707 10929 c7 -7 15 -10 18 -7 3 3 -2 9 -12 12 -14 6 -15 5 -6 -5z"/>
</g>
</svg>
